# xmcd
#
# Track frame offsets: 
#        150
#        17190
#        36204
#        51500
#        72344
#        91227
#        107717
#        125378
#        142527
#        157749
#        173207
#        187498
#        199180
#        211245
#        228836
#        248849
#        265416
#        286353
#        309784
#        335976
#
# Disc length: 4703 seconds
#
# Revision: 0
# Processed by: cddbd v1.5.2PL0 Copyright (c) Steve Scherf et al.
# Submitted via: ExactAudioCopy v1.3
#
DISCID=23125d14
DTITLE=Blackstreet - L'intégrale (3 CD and 1 DVD) - CD2 Best Of Feat. and 
DTITLE=Solo
DYEAR=2011
DGENRE=R&B
TTITLE0=Foxy Brown Feat. Blackstreet - Get Me Home
TTITLE1=Mase Feat. Blackstreet - Get Ready
TTITLE2=Queen Pen feat. Blackstreet - All My Love
TTITLE3=2Pac Feat. Eric Williams - Do For Love
TTITLE4=Dave Hollister Feat. AZ - Keep Lovin' You (RMX)
TTITLE5=Mark Middleton - Me and Your Baby
TTITLE6=Dave Hollister - The Weekend
TTITLE7=Chauncey Black Feat. Young Buck and Rah Digga - Ride Or Die
TTITLE8=Jay Z. Feat. Blackstreet - The City Is Mine
TTITLE9=Dave Hollister - The Weekend (Clarkfworld Rmx)
TTITLE10=Levi Little - Pick Up The Phone
TTITLE11=Teddy Riley - Friend Of Mine
TTITLE12=Chauncey Black - Everyday Is A Birthday
TTITLE13=Levi Little - Somebody To Love
TTITLE14=Dave Hollister - One Woman Man
TTITLE15=Dave Hollister Feat. Phife Dawg - Baby Do Those Things
TTITLE16=Chauncey Black - Shame On You
TTITLE17=Janet Jackson Feat. Blackstreet - Get So Lonely
TTITLE18=Happy Song (Full Crew Mix)
TTITLE19=Think About (All I Do Mix)
EXTD=
EXTT0=
EXTT1=
EXTT2=
EXTT3=
EXTT4=
EXTT5=
EXTT6=
EXTT7=
EXTT8=
EXTT9=
EXTT10=
EXTT11=
EXTT12=
EXTT13=
EXTT14=
EXTT15=
EXTT16=
EXTT17=
EXTT18=
EXTT19=
PLAYORDER=
